<?xml version="1.0" standalone="no"?>
<!DOCTYPE svg PUBLIC "-//W3C//DTD SVG 20010904//EN"
 "http://www.w3.org/TR/2001/REC-SVG-20010904/DTD/svg10.dtd">
<svg version="1.0" xmlns="http://www.w3.org/2000/svg"
 width="876.000000pt" height="876.000000pt" viewBox="0 0 876.000000 876.000000"
 preserveAspectRatio="xMidYMid meet">
<metadata>
Created by potrace 1.11, written by Peter Selinger 2001-2013
</metadata>
<g transform="translate(0.000000,876.000000) scale(0.100000,-0.100000)"
fill="#000000" stroke="none">
<path d="M4220 8206 c-51 -13 -97 -39 -180 -101 -30 -22 -72 -52 -92 -65 -21
-14 -38 -28 -38 -32 0 -5 -5 -8 -10 -8 -6 0 -16 -5 -23 -11 -7 -6 -176 -128
-377 -272 -201 -144 -376 -270 -390 -280 -22 -17 -233 -168 -405 -290 -33 -24
-190 -137 -350 -252 -159 -114 -309 -221 -332 -237 -23 -16 -59 -48 -80 -72
-40 -45 -63 -63 -373 -285 -107 -77 -206 -148 -220 -158 -14 -10 -205 -148
-425 -306 -220 -158 -440 -317 -490 -353 -49 -36 -141 -102 -204 -147 -63 -45
-122 -95 -133 -112 -44 -73 9 -165 96 -165 39 0 58 10 197 110 85 61 163 118
174 126 21 15 77 56 541 389 154 110 286 205 294 212 8 7 119 87 245 177 l230
166 3 -1152 c1 -634 -1 -1155 -5 -1159 -5 -4 -62 -25 -128 -48 -179 -60 -598
-201 -615 -208 -31 -11 -867 -295 -907 -308 -23 -8 -51 -18 -61 -24 -19 -10
-19 -36 -18 -1223 l2 -1213 21 -53 c42 -105 137 -194 237 -224 33 -10 855 -13
3981 -13 l3940 0 65 31 c108 51 169 116 205 219 17 47 18 165 19 2265 1 1218
-1 2238 -5 2266 -9 65 -41 135 -86 185 -29 32 -221 169 -237 169 -3 0 -31 17
-63 39 -32 21 -132 85 -223 142 -367 231 -511 321 -760 479 -143 91 -268 170
-278 175 -10 6 -56 34 -102 64 -47 29 -101 63 -120 76 -19 12 -60 38 -90 57
-30 20 -118 75 -195 123 -77 49 -162 102 -190 120 -80 51 -392 249 -420 265
-13 8 -88 56 -166 105 -79 50 -157 99 -176 110 -128 77 -958 605 -998 636 -27
20 -67 44 -88 53 -52 21 -141 26 -197 12z"/>
</g>
</svg>
